<mxfile host="app.diagrams.net" modified="2023-03-12T11:55:36.405Z" agent="5.0 (Macintosh; Intel Mac OS X 10_15_7) AppleWebKit/537.36 (KHTML, like Gecko) Chrome/110.0.0.0 Safari/537.36 Edg/110.0.1587.63" etag="GkJtWb2PPX-So2ZxEPQS" version="21.0.6" type="github">
  <diagram name="第 1 页" id="vqujADb8vxc1EECQwjmK">
    <mxGraphModel dx="1434" dy="828" grid="1" gridSize="10" guides="1" tooltips="1" connect="1" arrows="1" fold="1" page="1" pageScale="1" pageWidth="827" pageHeight="1169" math="0" shadow="0">
      <root>
        <mxCell id="0" />
        <mxCell id="1" parent="0" />
        <mxCell id="DSAzzAbBp9VcvD_q3Cqm-22" style="edgeStyle=orthogonalEdgeStyle;rounded=0;orthogonalLoop=1;jettySize=auto;html=1;exitX=1;exitY=0.5;exitDx=0;exitDy=0;entryX=0;entryY=0.5;entryDx=0;entryDy=0;curved=1;" edge="1" parent="1" source="DSAzzAbBp9VcvD_q3Cqm-1" target="DSAzzAbBp9VcvD_q3Cqm-2">
          <mxGeometry relative="1" as="geometry" />
        </mxCell>
        <mxCell id="DSAzzAbBp9VcvD_q3Cqm-23" style="edgeStyle=orthogonalEdgeStyle;rounded=0;orthogonalLoop=1;jettySize=auto;html=1;exitX=1;exitY=0.5;exitDx=0;exitDy=0;entryX=0;entryY=0.5;entryDx=0;entryDy=0;curved=1;" edge="1" parent="1" source="DSAzzAbBp9VcvD_q3Cqm-1" target="DSAzzAbBp9VcvD_q3Cqm-3">
          <mxGeometry relative="1" as="geometry" />
        </mxCell>
        <mxCell id="DSAzzAbBp9VcvD_q3Cqm-1" value="Tapable" style="rounded=1;whiteSpace=wrap;html=1;" vertex="1" parent="1">
          <mxGeometry x="30" y="410" width="120" height="60" as="geometry" />
        </mxCell>
        <mxCell id="DSAzzAbBp9VcvD_q3Cqm-13" style="edgeStyle=orthogonalEdgeStyle;rounded=0;orthogonalLoop=1;jettySize=auto;html=1;exitX=1;exitY=0.5;exitDx=0;exitDy=0;entryX=0;entryY=0.5;entryDx=0;entryDy=0;elbow=vertical;curved=1;" edge="1" parent="1" source="DSAzzAbBp9VcvD_q3Cqm-2" target="DSAzzAbBp9VcvD_q3Cqm-4">
          <mxGeometry relative="1" as="geometry" />
        </mxCell>
        <mxCell id="DSAzzAbBp9VcvD_q3Cqm-14" style="edgeStyle=orthogonalEdgeStyle;rounded=0;orthogonalLoop=1;jettySize=auto;html=1;exitX=1;exitY=0.5;exitDx=0;exitDy=0;entryX=0;entryY=0.5;entryDx=0;entryDy=0;curved=1;" edge="1" parent="1" source="DSAzzAbBp9VcvD_q3Cqm-2" target="DSAzzAbBp9VcvD_q3Cqm-5">
          <mxGeometry relative="1" as="geometry" />
        </mxCell>
        <mxCell id="DSAzzAbBp9VcvD_q3Cqm-15" style="edgeStyle=orthogonalEdgeStyle;rounded=0;orthogonalLoop=1;jettySize=auto;html=1;exitX=1;exitY=0.5;exitDx=0;exitDy=0;entryX=0;entryY=0.5;entryDx=0;entryDy=0;curved=1;" edge="1" parent="1" source="DSAzzAbBp9VcvD_q3Cqm-2" target="DSAzzAbBp9VcvD_q3Cqm-6">
          <mxGeometry relative="1" as="geometry" />
        </mxCell>
        <mxCell id="DSAzzAbBp9VcvD_q3Cqm-16" style="edgeStyle=orthogonalEdgeStyle;rounded=0;orthogonalLoop=1;jettySize=auto;html=1;exitX=1;exitY=0.5;exitDx=0;exitDy=0;entryX=0;entryY=0.5;entryDx=0;entryDy=0;curved=1;" edge="1" parent="1" source="DSAzzAbBp9VcvD_q3Cqm-2" target="DSAzzAbBp9VcvD_q3Cqm-7">
          <mxGeometry relative="1" as="geometry" />
        </mxCell>
        <mxCell id="DSAzzAbBp9VcvD_q3Cqm-2" value="Sync*" style="rounded=1;whiteSpace=wrap;html=1;" vertex="1" parent="1">
          <mxGeometry x="230" y="260" width="120" height="60" as="geometry" />
        </mxCell>
        <mxCell id="DSAzzAbBp9VcvD_q3Cqm-17" style="edgeStyle=orthogonalEdgeStyle;rounded=0;orthogonalLoop=1;jettySize=auto;html=1;exitX=1;exitY=0.5;exitDx=0;exitDy=0;entryX=0;entryY=0.5;entryDx=0;entryDy=0;curved=1;" edge="1" parent="1" source="DSAzzAbBp9VcvD_q3Cqm-3" target="DSAzzAbBp9VcvD_q3Cqm-8">
          <mxGeometry relative="1" as="geometry" />
        </mxCell>
        <mxCell id="DSAzzAbBp9VcvD_q3Cqm-18" style="edgeStyle=orthogonalEdgeStyle;rounded=0;orthogonalLoop=1;jettySize=auto;html=1;exitX=1;exitY=0.5;exitDx=0;exitDy=0;entryX=0;entryY=0.5;entryDx=0;entryDy=0;curved=1;" edge="1" parent="1" source="DSAzzAbBp9VcvD_q3Cqm-3" target="DSAzzAbBp9VcvD_q3Cqm-9">
          <mxGeometry relative="1" as="geometry" />
        </mxCell>
        <mxCell id="DSAzzAbBp9VcvD_q3Cqm-19" style="edgeStyle=orthogonalEdgeStyle;rounded=0;orthogonalLoop=1;jettySize=auto;html=1;exitX=1;exitY=0.5;exitDx=0;exitDy=0;entryX=0;entryY=0.5;entryDx=0;entryDy=0;curved=1;" edge="1" parent="1" source="DSAzzAbBp9VcvD_q3Cqm-3" target="DSAzzAbBp9VcvD_q3Cqm-10">
          <mxGeometry relative="1" as="geometry" />
        </mxCell>
        <mxCell id="DSAzzAbBp9VcvD_q3Cqm-20" style="edgeStyle=orthogonalEdgeStyle;rounded=0;orthogonalLoop=1;jettySize=auto;html=1;exitX=1;exitY=0.5;exitDx=0;exitDy=0;entryX=0;entryY=0.5;entryDx=0;entryDy=0;curved=1;" edge="1" parent="1" source="DSAzzAbBp9VcvD_q3Cqm-3" target="DSAzzAbBp9VcvD_q3Cqm-11">
          <mxGeometry relative="1" as="geometry" />
        </mxCell>
        <mxCell id="DSAzzAbBp9VcvD_q3Cqm-21" style="edgeStyle=orthogonalEdgeStyle;rounded=0;orthogonalLoop=1;jettySize=auto;html=1;exitX=1;exitY=0.5;exitDx=0;exitDy=0;entryX=0;entryY=0.5;entryDx=0;entryDy=0;curved=1;" edge="1" parent="1" source="DSAzzAbBp9VcvD_q3Cqm-3" target="DSAzzAbBp9VcvD_q3Cqm-12">
          <mxGeometry relative="1" as="geometry" />
        </mxCell>
        <mxCell id="DSAzzAbBp9VcvD_q3Cqm-3" value="ASync*" style="rounded=1;whiteSpace=wrap;html=1;" vertex="1" parent="1">
          <mxGeometry x="230" y="590" width="120" height="60" as="geometry" />
        </mxCell>
        <mxCell id="DSAzzAbBp9VcvD_q3Cqm-4" value="&lt;div&gt;SyncHook&lt;/div&gt;" style="rounded=1;whiteSpace=wrap;html=1;" vertex="1" parent="1">
          <mxGeometry x="450" y="150" width="170" height="60" as="geometry" />
        </mxCell>
        <mxCell id="DSAzzAbBp9VcvD_q3Cqm-5" value="SyncBailHook" style="rounded=1;whiteSpace=wrap;html=1;" vertex="1" parent="1">
          <mxGeometry x="450" y="220" width="170" height="60" as="geometry" />
        </mxCell>
        <mxCell id="DSAzzAbBp9VcvD_q3Cqm-6" value="SyncWaterfallHook" style="rounded=1;whiteSpace=wrap;html=1;" vertex="1" parent="1">
          <mxGeometry x="450" y="290" width="170" height="60" as="geometry" />
        </mxCell>
        <mxCell id="DSAzzAbBp9VcvD_q3Cqm-7" value="SyncLoopHook" style="rounded=1;whiteSpace=wrap;html=1;" vertex="1" parent="1">
          <mxGeometry x="450" y="360" width="170" height="60" as="geometry" />
        </mxCell>
        <mxCell id="DSAzzAbBp9VcvD_q3Cqm-8" value="&lt;div style=&quot;border-color: var(--border-color);&quot;&gt;AsyncParallelHook&lt;/div&gt;" style="rounded=1;whiteSpace=wrap;html=1;" vertex="1" parent="1">
          <mxGeometry x="450" y="450" width="170" height="60" as="geometry" />
        </mxCell>
        <mxCell id="DSAzzAbBp9VcvD_q3Cqm-9" value="&lt;div style=&quot;border-color: var(--border-color);&quot;&gt;&lt;span style=&quot;background-color: initial;&quot;&gt;AsyncParallelBailHook&lt;/span&gt;&lt;br&gt;&lt;/div&gt;" style="rounded=1;whiteSpace=wrap;html=1;" vertex="1" parent="1">
          <mxGeometry x="450" y="520" width="170" height="60" as="geometry" />
        </mxCell>
        <mxCell id="DSAzzAbBp9VcvD_q3Cqm-10" value="&lt;div style=&quot;border-color: var(--border-color);&quot;&gt;&lt;span style=&quot;background-color: initial;&quot;&gt;AsyncSeriesHook&lt;/span&gt;&lt;/div&gt;" style="rounded=1;whiteSpace=wrap;html=1;" vertex="1" parent="1">
          <mxGeometry x="450" y="590" width="170" height="60" as="geometry" />
        </mxCell>
        <mxCell id="DSAzzAbBp9VcvD_q3Cqm-11" value="&lt;div style=&quot;border-color: var(--border-color);&quot;&gt;AsyncSeriesBailHook&lt;/div&gt;" style="rounded=1;whiteSpace=wrap;html=1;" vertex="1" parent="1">
          <mxGeometry x="450" y="660" width="170" height="60" as="geometry" />
        </mxCell>
        <mxCell id="DSAzzAbBp9VcvD_q3Cqm-12" value="AsyncSeriesWaterfallHook" style="rounded=1;whiteSpace=wrap;html=1;" vertex="1" parent="1">
          <mxGeometry x="450" y="730" width="170" height="60" as="geometry" />
        </mxCell>
      </root>
    </mxGraphModel>
  </diagram>
</mxfile>
